# xmcd
# 
# Track frame offsets:
#     183
#     12720
#     27055
#     40633
#     53890
#     68193
#     81288
#     95765
#     110038
#     122625
#     137288
#     153200
#     169168
#     183593
#     197268
#     214395
#     229865
# 
# Disc length: 3276 seconds
# 
# Revision: 4
# Processed by: cddbd v1.5.1PL2 Copyright (c) Steve Scherf et al.
# Submitted via: BonkEnc v0.9
# 
DISCID=e60cca11
DTITLE=Truck Stop - Ich Möcht' So Gern Dave Dudley Hör'n - CD 2
DYEAR=1900
DGENRE=Country
TTITLE0=Der Wilde, Wilde Westen
TTITLE1=Tanz Mit Mir
TTITLE2=Das Mädchen Wird Schöner Mit Jedem Glas Bier
TTITLE3=Alles Klar
TTITLE4=Happy Birthday
TTITLE5=Die Frau Mit Dem Gurt
TTITLE6=Mein Stiefel Kommt In' Himmel
TTITLE7=Angeln Entspannt
TTITLE8=Truck Stop Mama
TTITLE9=Louisiana Ladies
TTITLE10=Lisa
TTITLE11=Kopf Oder Zahl (Geh'n Wir Nun Zu Dir - Oder Mir)
TTITLE12=Zwölf Rosen
TTITLE13=Hilly Billy Country Lilly
TTITLE14=Vater Und Sohn
TTITLE15=Square Dance-Darling
TTITLE16=Freunde Bleiben
EXTD=
EXTT0=
EXTT1=
EXTT2=
EXTT3=
EXTT4=
EXTT5=
EXTT6=
EXTT7=
EXTT8=
EXTT9=
EXTT10=
EXTT11=
EXTT12=
EXTT13=
EXTT14=
EXTT15=
EXTT16=
PLAYORDER=
